<?xml version="1.0" standalone="no"?>
<!DOCTYPE svg PUBLIC "-//W3C//DTD SVG 20010904//EN"
 "http://www.w3.org/TR/2001/REC-SVG-20010904/DTD/svg10.dtd">
<svg version="1.0" xmlns="http://www.w3.org/2000/svg"
 width="1080.000000pt" height="1080.000000pt" viewBox="0 0 1080.000000 1080.000000"
 preserveAspectRatio="xMidYMid meet">

<g transform="translate(0.000000,1080.000000) scale(0.100000,-0.100000)"
fill="#000000" stroke="none">
<path d="M5170 8334 c-96 -9 -328 -46 -434 -70 -452 -102 -889 -324 -1250
-634 -633 -544 -997 -1304 -1023 -2135 -30 -963 399 -1863 1162 -2439 521
-394 1119 -596 1761 -596 489 0 880 90 1319 305 566 277 1030 736 1320 1306
161 316 263 661 301 1014 22 205 15 566 -15 750 -83 519 -288 989 -604 1389
-99 126 -351 377 -477 478 -417 331 -904 538 -1440 614 -101 14 -526 26 -620
18z m635 -43 c369 -55 695 -164 997 -331 255 -142 450 -291 674 -514 369 -370
624 -820 755 -1332 57 -225 80 -393 86 -644 5 -200 -11 -455 -33 -537 l-6 -23
-2878 0 -2878 0 -5 23 c-35 144 -43 624 -14 832 67 480 209 862 462 1240 116
173 200 278 335 419 470 487 1122 810 1768 876 53 5 115 12 137 14 101 10 475
-4 600 -23z m2470 -3423 c-44 -195 -62 -262 -96 -368 -96 -290 -211 -520 -387
-772 l-75 -108 -2315 0 c-2193 0 -2316 1 -2329 18 -160 205 -322 502 -418 767
-48 134 -125 416 -125 460 l0 25 2875 0 2875 0 -5 -22z m-1505 -1272 c0 -3
-27 -26 -60 -51 -62 -47 -73 -65 -42 -65 23 0 108 -115 104 -140 -2 -11 0 -20
3 -20 11 0 135 101 135 109 0 16 -38 42 -45 32 -3 -6 -3 -16 0 -21 7 -11 -32
-49 -51 -50 -7 0 -19 11 -27 24 -16 23 -15 25 16 49 28 22 30 26 14 32 -12 5
-26 0 -41 -14 -22 -21 -23 -21 -39 -3 -9 10 -17 23 -17 29 0 16 47 44 63 37
19 -7 33 14 18 29 -6 6 -11 15 -11 19 0 4 203 8 450 8 248 0 450 -3 450 -6 0
-22 -200 -240 -319 -348 -365 -332 -790 -560 -1271 -681 -427 -108 -893 -113
-1339 -16 -600 131 -1184 484 -1583 957 -37 45 -68 84 -68 88 0 3 823 6 1830
6 1007 0 1830 -2 1830 -4z"/>
<path d="M5200 8213 c-704 -69 -1263 -319 -1752 -783 -600 -567 -925 -1418
-858 -2246 15 -179 34 -191 23 -14 -23 386 7 694 101 1015 159 544 493 1042
935 1394 685 546 1555 742 2400 541 935 -223 1701 -923 2006 -1837 95 -283
138 -545 139 -848 1 -115 -3 -253 -7 -305 -6 -68 -6 -92 2 -85 21 20 34 225
28 435 -17 601 -206 1139 -571 1625 -109 146 -360 399 -506 512 -459 353 -945
541 -1530 593 -107 9 -331 11 -410 3z"/>
<path d="M5343 7963 c-52 -4 -53 -4 -63 -46 -24 -91 -49 -180 -53 -183 -2 -3
-24 43 -48 101 l-44 105 -59 0 c-49 0 -57 -2 -52 -16 3 -9 6 -18 6 -20 0 -2 6
-4 14 -4 25 0 37 -216 12 -226 -24 -9 -6 -34 24 -34 71 0 118 25 71 37 -16 4
-20 18 -26 76 -3 40 -9 80 -12 91 -14 49 18 -3 57 -94 36 -84 47 -100 64 -98
16 2 25 23 50 118 l31 115 8 -90 c7 -76 6 -91 -7 -101 -27 -19 -18 -34 22 -34
51 0 82 10 82 25 0 7 -9 15 -20 18 -16 4 -20 14 -20 49 0 23 -3 73 -7 111 -5
58 -4 67 11 67 9 0 16 8 16 20 0 11 -1 19 -2 18 -2 -1 -27 -3 -55 -5z"/>
<path d="M5816 7900 c-3 -18 -6 -36 -6 -41 0 -15 39 -10 48 6 6 13 14 14 34 6
l26 -10 -19 -83 c-11 -46 -21 -93 -24 -104 -3 -12 -14 -24 -25 -27 -36 -9 -21
-25 36 -37 45 -10 58 -9 65 1 4 8 1 17 -8 24 -14 11 -13 22 6 110 12 55 24
101 26 103 10 11 53 -10 58 -28 9 -33 35 -24 43 15 3 20 5 37 3 39 -2 1 -51
12 -109 25 -58 12 -114 24 -126 27 -18 5 -22 0 -28 -26z"/>
<path d="M4685 7856 c-59 -26 -86 -98 -66 -173 24 -88 93 -134 170 -113 106
28 131 165 48 257 -26 28 -42 36 -77 39 -26 3 -58 -2 -75 -10z m94 -42 c30
-21 51 -72 51 -124 0 -99 -114 -110 -150 -14 -16 42 -12 109 8 126 34 31 59
34 91 12z"/>
<path d="M6253 7804 c-3 -9 0 -20 7 -24 21 -13 -60 -204 -89 -208 -36 -6 -23
-29 30 -52 42 -18 53 -19 60 -8 6 8 3 17 -7 24 -13 10 -13 16 2 48 10 20 22
36 26 36 12 0 108 -41 108 -47 0 -2 -7 -19 -14 -38 -11 -24 -21 -35 -36 -35
-37 0 -18 -30 33 -52 41 -18 50 -19 58 -7 6 9 4 18 -5 25 -12 8 -8 27 28 110
26 61 47 99 56 99 14 0 36 23 28 29 -1 1 -27 12 -56 24 -47 19 -54 19 -59 6
-3 -9 0 -20 7 -24 10 -6 10 -15 0 -44 -6 -19 -15 -38 -20 -41 -7 -4 -95 26
-117 40 -2 1 5 21 15 44 12 31 22 41 35 37 9 -2 17 -3 17 -1 0 2 3 10 6 18 3
9 -2 16 -13 20 -10 2 -35 12 -56 21 -35 15 -38 15 -44 0z"/>
<path d="M4250 7686 c-74 -33 -104 -66 -61 -66 16 0 31 -21 67 -92 39 -78 44
-95 34 -111 -20 -33 3 -38 58 -15 35 15 52 27 50 38 -2 9 -12 14 -25 12 -16
-2 -24 6 -36 35 -15 37 -14 38 10 51 36 19 65 11 88 -25 24 -38 47 -48 75 -33
23 12 27 40 6 40 -7 0 -26 16 -40 35 -16 20 -36 35 -48 35 -15 0 -18 4 -13 18
18 43 16 52 -13 82 -38 38 -59 37 -152 -4z m117 -43 c14 -20 13 -24 -11 -48
-34 -34 -53 -32 -73 11 -17 35 -17 36 2 50 27 20 65 14 82 -13z"/>
<path d="M6695 7600 c-4 -6 -2 -16 4 -23 14 -17 -103 -201 -124 -194 -7 3 -18
0 -25 -7 -8 -11 10 -27 84 -75 52 -33 98 -61 103 -61 5 0 16 13 26 29 15 25
15 30 2 41 -12 10 -18 10 -30 0 -12 -10 -22 -8 -52 11 -21 12 -40 24 -42 25
-4 4 39 74 46 74 2 0 23 -11 47 -25 39 -23 42 -23 53 -7 9 16 4 22 -33 46
l-44 28 22 31 c12 18 22 33 23 34 0 1 19 -10 42 -25 33 -22 39 -31 32 -44 -7
-13 -5 -20 10 -27 15 -9 22 -6 35 13 8 14 17 29 18 35 2 8 -173 131 -187 131
-2 0 -7 -5 -10 -10z"/>
<path d="M3915 7485 c-90 -65 -109 -90 -68 -90 15 0 37 -21 75 -75 72 -100 71
-99 59 -114 -8 -10 -8 -16 2 -24 9 -8 24 -2 56 22 51 39 55 49 17 56 -16 3
-35 17 -47 36 l-19 31 40 27 c42 28 45 33 31 55 -7 11 -17 8 -52 -18 l-43 -31
-23 27 c-12 16 -22 33 -23 39 0 19 76 64 88 52 12 -12 42 -4 42 11 0 5 -10 21
-22 35 l-23 26 -90 -65z"/>
<path d="M5140 7355 c-575 -79 -1079 -399 -1400 -890 -68 -104 -159 -294 -203
-420 -107 -311 -134 -642 -81 -974 3 -22 9 -30 15 -24 7 7 6 32 -1 74 -6 35
-13 132 -17 214 -33 857 513 1641 1332 1913 351 117 727 131 1094 42 683 -167
1241 -725 1415 -1418 55 -215 72 -513 42 -722 -8 -52 -10 -99 -6 -104 36 -37
53 418 24 625 -49 354 -199 699 -423 973 -68 83 -233 247 -308 305 -352 275
-786 423 -1233 420 -85 -1 -198 -7 -250 -14z"/>
<path d="M7219 7193 c-1 -5 -2 -17 -3 -29 -1 -29 -142 -157 -164 -150 -9 3
-23 2 -30 -2 -9 -6 -2 -21 29 -56 33 -37 44 -44 55 -35 11 9 12 15 3 26 -10
11 -5 20 22 43 l34 29 35 -40 c32 -37 37 -39 49 -25 12 14 10 22 -18 56 -17
21 -31 41 -31 44 0 2 14 14 31 27 l31 21 34 -33 c25 -25 31 -36 23 -46 -14
-16 -5 -43 14 -43 7 0 24 11 36 24 l22 24 -78 86 c-73 81 -91 96 -94 79z"/>
<path d="M3468 7052 c-37 -17 -128 -118 -128 -142 0 -8 8 -10 25 -6 21 5 39
-5 105 -60 61 -50 79 -71 75 -84 -7 -23 12 -35 31 -19 8 6 35 39 59 71 57 76
61 120 14 173 -67 75 -121 96 -181 67z m117 -84 c51 -45 58 -79 24 -122 l-21
-26 -74 62 c-41 34 -77 66 -80 70 -7 12 25 48 51 58 29 11 50 2 100 -42z"/>
<path d="M5465 6809 c-181 -15 -404 -33 -495 -40 l-165 -12 -195 -144 -196
-144 -152 -274 c-84 -151 -152 -277 -152 -280 0 -3 16 -5 35 -5 l36 0 -3 -72
-3 -72 -215 -133 c-152 -93 -216 -138 -218 -153 -3 -17 2 -20 32 -20 l36 0 0
-194 0 -195 -37 -3 c-20 -2 -38 -9 -41 -16 -3 -10 326 -12 1637 -10 1084 2
1642 6 1644 13 1 6 -39 11 -100 13 l-103 3 0 200 c0 197 0 200 22 208 23 8 38
-2 -259 189 l-73 47 0 72 0 72 73 3 c39 2 71 7 71 11 -1 5 -72 146 -158 315
l-157 307 -238 173 c-185 133 -245 172 -267 171 -16 -1 -177 -14 -359 -30z
m584 -172 l225 -162 127 -240 c71 -132 128 -246 129 -252 0 -8 -13 -13 -32
-13 -33 0 -35 3 -168 247 l-135 246 -95 66 c-52 37 -136 95 -186 130 l-92 63
-211 -124 -212 -123 -137 -222 c-95 -156 -142 -223 -154 -223 -10 0 -18 3 -18
6 0 4 50 103 111 220 l110 214 -332 0 c-183 0 -330 3 -326 6 6 7 355 36 574
49 l121 7 234 134 c128 73 235 133 238 133 3 -1 106 -73 229 -162z m-71 -374
c2 -228 2 -233 -18 -233 -19 0 -20 6 -20 210 l0 210 -115 0 -115 0 0 -210 c0
-203 -1 -210 -20 -210 -19 0 -20 7 -20 235 l0 236 153 -3 152 -3 3 -232z m-68
-28 l0 -175 -85 0 -85 0 0 175 0 175 85 0 85 0 0 -175z m-409 -88 c8 -14 3
-27 -22 -58 l-32 -41 -33 38 c-18 22 -33 41 -34 44 0 3 14 22 31 43 l31 38 25
-23 c14 -13 29 -31 34 -41z m749 -17 c0 -6 -15 -26 -33 -46 l-32 -36 -33 41
-33 41 33 41 33 41 32 -36 c18 -20 33 -40 33 -46z m-1092 -622 l2 -438 -130 0
-130 0 0 298 0 298 25 34 c14 19 25 47 25 63 l0 29 -247 -6 c-137 -4 -299 -9
-360 -12 l-113 -5 0 69 0 70 73 6 c85 7 778 34 822 32 l30 -1 3 -437z m958
425 c319 -7 323 -13 29 -39 -274 -24 -612 -9 -840 36 -52 10 432 12 811 3z
m-1276 -218 c-7 -9 -104 -67 -214 -130 l-202 -114 -277 -7 c-273 -7 -277 -7
-277 13 0 19 9 20 275 26 l275 7 208 109 c114 61 211 110 216 111 5 0 3 -7 -4
-15z m948 -1 c2 -1 -29 -62 -68 -134 -40 -72 -75 -128 -79 -125 -17 17 -148
261 -144 268 5 8 283 -1 291 -9z m409 -2 c9 -5 -6 -42 -51 -127 -35 -66 -68
-120 -72 -122 -8 -2 -144 235 -144 251 0 9 253 7 267 -2z m-657 -192 l72 -130
-72 -130 c-39 -71 -75 -130 -81 -130 -5 0 -9 105 -9 260 0 155 4 260 9 260 6
0 42 -58 81 -130z m290 -136 c0 -145 -4 -253 -9 -250 -11 7 -141 242 -141 255
0 16 133 251 142 251 4 0 8 -115 8 -256z m145 134 l68 -123 -69 -132 c-37 -72
-72 -129 -76 -127 -11 7 -10 504 0 504 5 0 39 -55 77 -122z m642 56 c123 -76
146 -94 121 -94 -8 0 -32 7 -51 15 -20 8 -39 15 -42 15 -3 0 -5 -99 -5 -220
l0 -220 -70 0 -70 0 0 285 c0 157 2 285 4 285 3 0 53 -30 113 -66z m-387 -179
c0 -113 -3 -205 -8 -205 -9 0 -112 186 -112 202 0 16 104 208 113 208 4 0 7
-92 7 -205z m-1440 -110 l0 -215 -85 0 -85 0 0 215 0 215 85 0 85 0 0 -215z
m-700 50 l0 -65 -85 0 -85 0 0 65 0 65 85 0 85 0 0 -65z m210 0 l0 -65 -85 0
-85 0 0 65 0 65 85 0 85 0 0 -65z m128 -85 c0 -52 -3 -106 -8 -120 -7 -24 -8
-24 -16 -5 -11 26 -11 202 0 240 l9 30 7 -25 c5 -14 8 -68 8 -120z m1293 -52
l68 -123 -141 -3 c-77 -1 -143 -1 -145 2 -3 2 2 15 10 28 8 12 40 69 72 126
31 57 59 101 63 98 3 -3 36 -61 73 -128z m430 0 l68 -123 -75 -3 c-41 -2 -106
-2 -144 0 l-69 3 71 128 c38 71 73 126 76 123 3 -3 36 -61 73 -128z"/>
<path d="M7420 6759 c-63 -15 -125 -26 -136 -23 -33 8 -36 -9 -8 -50 23 -33
48 -46 44 -22 -2 10 20 26 37 26 7 0 25 -18 39 -40 22 -33 24 -42 14 -55 -7
-9 -19 -14 -26 -11 -28 11 -32 -19 -7 -57 23 -37 48 -45 48 -16 0 8 33 57 74
109 41 52 79 101 84 108 13 17 -11 62 -32 61 -9 -1 -68 -14 -131 -30z m81 -57
c-11 -16 -28 -35 -37 -43 -14 -11 -18 -11 -30 6 -22 30 -17 42 24 53 61 16 65
15 43 -16z"/>
<path d="M3196 6689 c-87 -68 -67 -188 40 -239 62 -31 125 -24 167 18 24 25
31 41 35 85 4 50 2 57 -29 92 -19 21 -48 44 -66 51 -49 21 -116 18 -147 -7z
m139 -54 c54 -31 75 -76 54 -114 -28 -49 -84 -53 -150 -8 -49 33 -64 68 -45
106 26 48 76 54 141 16z"/>
<path d="M7708 6460 c-2 -17 -24 -31 -97 -61 -65 -27 -98 -36 -105 -29 -15 15
-36 12 -36 -4 0 -8 9 -35 20 -60 14 -34 23 -44 35 -40 9 4 13 13 10 24 -4 13
4 21 34 32 38 15 39 15 50 -9 21 -46 14 -73 -24 -89 -40 -17 -50 -33 -41 -69
7 -26 36 -35 36 -11 0 8 16 24 36 35 20 12 38 31 41 42 4 15 11 18 27 13 11
-3 23 -6 26 -6 49 -1 80 29 80 75 0 45 -52 171 -73 175 -9 2 -17 -5 -19 -18z
m41 -111 c24 -68 -42 -98 -79 -36 -25 41 -25 41 8 54 46 18 59 15 71 -18z"/>
<path d="M3029 6297 c-45 -30 -73 -87 -65 -133 12 -63 98 -124 176 -124 65 0
130 69 130 138 0 66 -91 142 -171 142 -21 0 -50 -9 -70 -23z m139 -54 c87 -41
69 -143 -25 -143 -95 0 -157 66 -122 131 21 40 76 45 147 12z"/>
<path d="M7870 6041 c0 -15 -17 -22 -107 -40 -96 -19 -109 -20 -119 -6 -24 33
-37 17 -30 -37 4 -28 9 -55 12 -60 10 -15 34 -8 34 10 0 14 16 21 82 35 45 9
83 16 84 14 2 -1 -38 -28 -89 -58 -63 -37 -93 -62 -95 -76 -3 -19 6 -22 113
-38 64 -10 113 -20 111 -23 -3 -3 -40 -11 -83 -18 -68 -12 -79 -12 -89 1 -24
33 -37 17 -30 -37 4 -28 9 -55 12 -60 10 -15 34 -8 34 10 0 16 16 22 100 37
85 16 104 16 125 5 14 -7 27 -11 30 -8 3 3 1 28 -5 56 -13 56 0 51 -157 73
-46 6 -83 13 -83 15 0 2 44 29 98 60 53 32 98 58 100 59 1 1 -3 25 -9 54 -7
32 -16 51 -25 51 -8 0 -14 -8 -14 -19z"/>
<path d="M2867 5808 c-13 -85 -14 -114 -5 -119 7 -4 17 -1 23 8 10 14 22 13
118 -2 91 -15 107 -21 107 -36 0 -18 24 -27 33 -11 3 4 8 31 12 60 6 44 4 52
-9 52 -9 0 -19 -6 -22 -14 -3 -8 -13 -12 -22 -10 -75 14 -70 9 -61 61 7 35 6
49 -3 55 -21 13 -27 9 -33 -17 -3 -14 -7 -36 -10 -50 -4 -20 -11 -25 -34 -25
-53 0 -59 7 -50 53 4 23 8 45 9 50 0 4 9 7 20 7 28 0 26 36 -2 44 -51 13 -52
12 -71 -106z"/>
<path d="M4220 4625 l0 -35 50 0 50 0 0 35 0 35 -50 0 -50 0 0 -35z"/>
<path d="M3520 4510 c0 -23 4 -30 20 -30 19 0 20 -7 20 -170 0 -163 -1 -170
-20 -170 -16 0 -20 -7 -20 -30 l0 -30 91 0 90 0 -3 28 c-2 19 -9 28 -24 30
-20 3 -22 10 -26 140 -3 75 -4 138 -3 140 3 3 8 -9 85 -220 40 -112 44 -118
70 -118 31 0 20 -23 120 253 18 48 34 87 35 85 2 -2 1 -65 -2 -140 -6 -129 -7
-137 -27 -140 -15 -2 -22 -11 -24 -30 l-3 -28 96 0 96 0 -3 28 c-2 19 -9 28
-25 30 -23 3 -23 5 -23 172 0 167 0 169 23 172 16 2 23 11 25 31 l3 27 -84 0
-85 0 -40 -112 c-21 -62 -47 -137 -56 -165 -10 -29 -21 -53 -26 -53 -5 0 -21
37 -36 83 -15 45 -40 119 -56 165 l-30 82 -79 0 -79 0 0 -30z"/>
<path d="M4190 4511 c0 -23 5 -30 23 -33 22 -3 22 -6 25 -166 l2 -162 -25 -10
c-18 -7 -25 -17 -25 -35 0 -25 0 -25 90 -25 90 0 90 0 90 25 0 18 -7 28 -25
35 l-25 10 2 162 c3 160 3 163 26 166 17 3 22 10 22 33 l0 29 -90 0 -90 0 0
-29z"/>
<path d="M4480 4511 c0 -23 5 -30 23 -33 22 -3 22 -6 25 -166 l2 -162 -25 -10
c-18 -7 -25 -17 -25 -35 l0 -25 170 0 170 0 0 65 0 65 -35 0 c-32 0 -35 -2
-35 -30 l0 -30 -70 0 -70 0 2 163 c3 159 3 162 26 165 17 3 22 10 22 33 l0 29
-90 0 -90 0 0 -29z"/>
<path d="M4922 4513 c2 -20 9 -29 26 -31 22 -3 22 -5 22 -172 0 -167 0 -169
-22 -172 -17 -2 -24 -11 -26 -30 l-3 -28 96 0 96 0 -3 28 c-2 19 -9 28 -25 30
-21 3 -23 9 -23 68 0 64 0 64 29 64 24 0 35 -10 69 -62 27 -40 38 -66 32 -72
-6 -6 -10 -20 -10 -33 0 -22 3 -23 85 -23 84 0 85 0 85 25 0 18 -7 28 -24 34
-23 9 -139 164 -139 186 0 6 24 43 54 83 39 52 60 72 76 72 19 0 23 5 23 30
l0 31 -87 -3 c-83 -3 -88 -4 -91 -26 -2 -13 3 -24 12 -28 24 -9 -61 -134 -91
-134 -22 0 -23 4 -23 64 0 59 2 65 23 68 16 2 23 11 25 31 l3 27 -96 0 -96 0
3 -27z"/>
<path d="M5528 4519 c-43 -22 -68 -63 -68 -110 0 -46 58 -98 142 -127 84 -30
108 -47 108 -78 0 -54 -64 -79 -138 -53 -25 8 -33 18 -38 45 -6 31 -9 34 -40
34 -33 0 -34 -1 -34 -43 0 -49 14 -67 73 -92 45 -19 147 -20 190 -1 67 28 93
94 63 158 -19 39 -54 62 -150 97 -76 29 -92 45 -82 84 8 33 65 53 115 40 33
-9 44 -19 55 -55 4 -12 16 -18 36 -18 31 0 31 0 28 48 -3 45 -5 48 -48 70 -58
29 -158 30 -212 1z"/>
<path d="M6025 4523 c-48 -25 -66 -45 -91 -98 -49 -105 -21 -248 61 -311 32
-24 49 -29 109 -32 89 -4 136 20 181 92 27 45 30 57 30 136 0 79 -3 91 -30
136 -41 66 -92 94 -170 93 -35 0 -72 -6 -90 -16z m153 -69 c33 -22 52 -73 52
-144 0 -108 -40 -165 -115 -165 -81 0 -120 65 -113 186 7 126 87 182 176 123z"/>
<path d="M6430 4511 c0 -23 5 -30 23 -33 22 -3 22 -6 25 -166 l2 -162 -25 -10
c-18 -7 -25 -17 -25 -35 0 -25 0 -25 90 -25 90 0 90 0 90 25 0 18 -7 28 -25
35 -23 9 -25 15 -25 70 l0 60 80 0 80 0 0 35 0 35 -80 0 -80 0 0 65 0 65 80 0
c79 0 80 0 80 -25 0 -22 4 -25 35 -25 l35 0 0 60 0 60 -180 0 -180 0 0 -29z"/>
<path d="M6890 4480 l0 -60 30 0 c25 0 30 4 30 25 0 23 4 25 45 25 l45 0 0
-164 c0 -163 0 -165 -22 -168 -17 -2 -24 -11 -26 -30 l-3 -28 96 0 96 0 -3 28
c-2 19 -9 28 -25 30 -23 3 -23 5 -23 168 l0 164 45 0 c41 0 45 -2 45 -25 0
-22 4 -25 35 -25 l35 0 0 60 0 60 -200 0 -200 0 0 -60z"/>
<path d="M3990 3563 c-29 -11 -70 -57 -81 -90 -16 -51 13 -103 68 -123 40 -13
44 -13 57 5 18 25 5 40 -22 26 -26 -14 -72 20 -72 53 0 23 23 63 48 84 37 29
113 -4 98 -44 -9 -23 3 -37 20 -23 49 40 -51 138 -116 112z"/>
<path d="M3455 3362 c358 -349 821 -598 1325 -712 243 -55 342 -65 625 -65
288 1 434 17 670 76 383 95 774 284 1060 513 90 72 305 268 305 278 0 21 -30
-1 -133 -98 -408 -387 -928 -636 -1517 -725 -193 -29 -562 -32 -745 -5 -449
65 -851 216 -1195 446 -131 88 -255 187 -366 293 -56 54 -108 97 -115 97 -8 0
31 -44 86 -98z"/>
<path d="M6528 3422 c-29 -18 -37 -42 -14 -42 8 0 19 -24 28 -67 8 -38 13 -70
11 -72 -7 -9 -103 94 -99 106 9 22 -13 25 -44 6 -32 -18 -39 -33 -17 -33 8 0
47 -29 88 -65 41 -35 79 -65 84 -65 32 0 34 16 15 112 -10 53 -16 106 -13 117
6 25 -2 25 -39 3z"/>
<path d="M5120 3395 c0 -13 37 -15 286 -15 224 0 285 3 282 13 -4 9 -72 13
-286 15 -246 2 -282 0 -282 -13z"/>
<path d="M4218 3384 c-35 -19 -58 -63 -58 -111 1 -59 38 -93 101 -93 38 0 93
52 102 99 18 87 -66 148 -145 105z m92 -32 c19 -15 22 -25 16 -54 -9 -48 -57
-93 -90 -84 -55 14 -54 92 1 136 32 25 45 25 73 2z"/>
<path d="M6218 3329 c-23 -13 -12 -38 13 -32 19 5 26 27 11 37 -4 2 -15 0 -24
-5z"/>
<path d="M6243 3275 c-36 -16 -42 -30 -15 -37 22 -6 75 -133 67 -159 -8 -23
-4 -23 40 -5 35 15 47 36 21 36 -20 0 -80 139 -66 154 9 12 4 27 -9 26 -3 -1
-21 -7 -38 -15z"/>
<path d="M4512 3255 c-48 -21 -79 -93 -63 -146 27 -89 143 -90 185 -2 32 67
13 123 -50 149 -39 16 -31 17 -72 -1z m88 -44 c15 -29 12 -62 -9 -98 -23 -36
-52 -49 -80 -34 -39 21 -39 75 0 124 25 33 73 37 89 8z"/>
<path d="M6015 3193 c-44 -14 -81 -26 -83 -28 -2 -1 0 -14 3 -28 7 -26 35 -28
35 -2 0 7 9 15 20 18 17 4 23 -4 40 -64 13 -42 18 -78 14 -95 -6 -23 -4 -26
10 -21 10 4 29 10 42 13 25 6 34 34 11 34 -15 0 -61 136 -51 151 8 13 42 11
47 -3 8 -22 27 5 21 30 -8 27 -9 27 -109 -5z"/>
<path d="M4774 3178 c-4 -6 -1 -14 6 -18 17 -10 -18 -160 -37 -160 -30 0 -10
-28 26 -38 l40 -10 -2 42 c-2 30 2 40 12 38 41 -9 83 -3 101 13 23 21 26 63 7
89 -16 22 -144 59 -153 44z m110 -51 c11 -8 17 -23 14 -38 -2 -20 -9 -25 -40
-27 -31 -3 -38 0 -38 15 1 58 26 78 64 50z"/>
<path d="M5718 3117 c-8 -8 -21 -54 -28 -101 -7 -48 -17 -89 -22 -92 -4 -3 -8
-12 -8 -20 0 -12 7 -14 33 -9 41 9 43 11 26 31 -11 14 -11 18 6 30 23 17 75
18 76 2 1 -7 1 -20 0 -29 -1 -12 6 -14 34 -11 39 5 42 9 19 31 -9 9 -35 52
-58 95 -44 85 -55 95 -78 73z m45 -81 c15 -33 15 -34 -5 -40 -30 -7 -35 -2
-30 38 5 45 14 45 35 2z"/>
<path d="M5050 3111 c0 -5 5 -11 11 -13 18 -6 1 -168 -17 -168 -15 0 -19 -16
-6 -23 4 -3 41 -8 83 -12 74 -7 76 -6 82 16 8 28 -12 44 -28 22 -8 -11 -20
-13 -44 -8 -29 6 -32 10 -29 38 3 30 5 32 41 29 28 -3 37 0 37 12 0 9 -12 16
-32 18 -29 3 -33 6 -33 33 0 18 5 30 13 29 6 -1 23 -2 37 -2 15 -1 25 -8 25
-17 0 -8 7 -15 15 -15 10 0 15 10 15 29 0 27 -2 28 -61 35 -84 8 -109 8 -109
-3z"/>
<path d="M5330 3085 c0 -8 7 -15 15 -15 12 0 15 -15 15 -79 0 -44 -4 -83 -10
-86 -22 -13 -8 -25 30 -25 38 0 52 12 30 25 -5 3 -10 20 -10 36 0 28 2 30 32
27 27 -3 33 -8 42 -43 9 -29 17 -41 34 -43 12 -2 22 0 22 5 -1 20 -28 86 -39
92 -9 6 -8 11 4 21 23 19 19 66 -7 84 -31 22 -158 23 -158 1z m131 -31 c18
-21 0 -48 -35 -52 -24 -3 -26 0 -26 32 0 31 3 36 24 36 13 0 29 -7 37 -16z"/>
</g>
</svg>
